<svg id="svg" xmlns="http://www.w3.org/2000/svg" xmlns:xlink="http://www.w3.org/1999/xlink" width="400" height="519.0311418685121" viewBox="0, 0, 400,519.0311418685121"><g id="svgg"><path id="path0" d="M51.799 27.336 C 45.858 37.803,32.347 61.209,21.776 79.349 C 11.206 97.489,2.890 113.200,3.298 114.263 C 3.881 115.783,8.834 116.275,26.587 116.574 L 49.135 116.955 49.135 260.181 L 49.135 403.406 43.124 406.722 C -5.649 433.627,25.669 507.775,79.229 492.204 C 118.004 480.932,122.570 422.629,85.937 406.548 C 82.443 405.014,79.127 403.069,78.568 402.226 C 76.350 398.880,77.338 228.352,79.580 227.492 C 80.966 226.960,91.402 236.029,111.090 254.871 C 174.871 315.914,194.083 333.751,197.414 335.017 C 203.503 337.332,207.593 334.905,224.089 319.185 C 310.511 236.827,321.364 226.792,323.236 227.510 C 326.032 228.583,326.324 402.678,323.529 402.914 C 322.578 402.994,311.800 402.940,299.579 402.792 C 270.589 402.443,271.160 401.755,283.343 422.311 C 288.478 430.974,302.142 454.567,313.709 474.740 C 336.838 515.080,336.405 514.646,342.675 503.806 C 345.097 499.619,356.571 479.689,368.174 459.516 C 379.777 439.343,391.710 419.148,394.691 414.638 C 402.646 402.604,402.462 402.481,377.141 402.912 C 364.318 403.130,355.113 402.726,354.296 401.909 C 353.408 401.020,353.052 350.587,353.281 258.056 L 353.633 115.571 365.106 114.879 C 373.219 114.390,376.962 113.579,377.888 112.111 C 380.340 108.220,379.585 37.914,377.064 35.393 C 373.797 32.126,301.636 32.126,298.369 35.393 C 295.848 37.914,295.092 108.219,297.544 112.111 C 298.496 113.621,302.357 114.375,311.710 114.879 L 324.567 115.571 324.927 149.481 L 325.287 183.391 285.712 220.761 C 205.210 296.777,205.904 296.156,201.384 296.156 C 196.864 296.156,197.563 296.781,117.056 220.761 L 77.481 183.391 77.841 150.173 L 78.201 116.955 101.242 116.576 C 117.872 116.303,124.692 115.705,125.752 114.428 C 126.848 113.107,121.513 102.842,104.728 73.976 C 92.357 52.701,78.836 29.222,74.682 21.800 C 64.840 4.218,64.935 4.195,51.799 27.336 " stroke="none" fill="#000000" fill-rule="evenodd"></path></g></svg>